<svg id="Layer_2" height="512" viewBox="0 0 128 128" width="512" xmlns="http://www.w3.org/2000/svg" data-name="Layer 2"><path d="m84.615 20.614h-41.23a43.386 43.386 0 0 0 0 86.771h41.23a43.386 43.386 0 0 0 0-86.771zm-4.865 3.5v6.5h-4.833v-6.5zm4.865 30a9.886 9.886 0 0 1 0 19.771h-41.23a9.886 9.886 0 0 1 0-19.771zm-9.7-3.5v-6.5h4.835v6.5zm-3.5 0h-28.03a13.386 13.386 0 0 0 0 26.771h41.23a13.386 13.386 0 0 0 0-26.771h-1.365v-6.5h1.365a19.886 19.886 0 0 1 0 39.771h-41.23a19.886 19.886 0 0 1 0-39.771h28.032zm-28.031-10a23.386 23.386 0 0 0 0 46.771h41.231a23.386 23.386 0 0 0 0-46.771h-1.365v-6.5h1.365a29.886 29.886 0 0 1 0 59.771h-41.23a29.886 29.886 0 0 1 0-59.771h28.032v6.5zm36.365 0h-4.832v-6.5h4.833zm4.865 63.271h-41.229a39.886 39.886 0 0 1 0-79.771h28.032v6.5h-28.032a33.386 33.386 0 0 0 0 66.771h41.23a33.386 33.386 0 0 0 0-66.771h-1.365v-6.5h1.365a39.886 39.886 0 0 1 0 79.771z"/></svg>